{
  "accessors": [
    {
      "bufferView": 2,
      "componentType": 5126,
      "count": 8827,
      "max": [
        11.355029106140137,
        -20.195486068725586,
        25.783714294433594
      ],
      "min": [
        -11.355026245117188,
        -34.00632095336914,
        7.263619422912598
      ],
      "type": "VEC3"
    },
    {
      "bufferView": 2,
      "byteOffset": 105924,
      "componentType": 5126,
      "count": 8827,
      "max": [
        1.0,
        1.0,
        1.0
      ],
      "min": [
        -1.0,
        -1.0,
        -1.0
      ],
      "type": "VEC3"
    },
    {
      "bufferView": 1,
      "componentType": 5126,
      "count": 8827,
      "max": [
        7.770752906799316,
        7.770753860473633
      ],
      "min": [
        -6.770753860473633,
        0.2787189483642578
      ],
      "type": "VEC2"
    },
    {
      "bufferView": 0,
      "componentType": 5125,
      "count": 19452,
      "type": "SCALAR"
    },
    {
      "bufferView": 2,
      "byteOffset": 211848,
      "componentType": 5126,
      "count": 33415,
      "max": [
        11.156107902526855,
        33.060184478759766,
        32.25094985961914
      ],
      "min": [
        -11.15610122680664,
        -21.84998321533203,
        8.738080024719238
      ],
      "type": "VEC3"
    },
    {
      "bufferView": 2,
      "byteOffset": 612828,
      "componentType": 5126,
      "count": 33415,
      "max": [
        1.0,
        1.0,
        1.0
      ],
      "min": [
        -1.0,
        -1.0,
        -1.0
      ],
      "type": "VEC3"
    },
    {
      "bufferView": 1,
      "byteOffset": 70616,
      "componentType": 5126,
      "count": 33415,
      "max": [
        6.588606357574463,
        5.3394856452941895
      ],
      "min": [
        -5.588607311248779,
        -5.6300225257873535
      ],
      "type": "VEC2"
    },
    {
      "bufferView": 0,
      "byteOffset": 77808,
      "componentType": 5125,
      "count": 84726,
      "type": "SCALAR"
    },
    {
      "bufferView": 2,
      "byteOffset": 1013808,
      "componentType": 5126,
      "count": 14515,
      "max": [
        -8.285331726074219,
        25.038721084594727,
        17.881521224975586
      ],
      "min": [
        -24.3856201171875,
        -26.72314453125,
        7.263622283935547
      ],
      "type": "VEC3"
    },
    {
      "bufferView": 2,
      "byteOffset": 1187988,
      "componentType": 5126,
      "count": 14515,
      "max": [
        1.0,
        1.0,
        1.0
      ],
      "min": [
        -1.0,
        -1.0,
        -1.0
      ],
      "type": "VEC3"
    },
    {
      "bufferView": 1,
      "byteOffset": 337936,
      "componentType": 5126,
      "count": 14515,
      "max": [
        6.17535924911499,
        6.314116477966309
      ],
      "min": [
        -5.175358772277832,
        -4.024892807006836
      ],
      "type": "VEC2"
    },
    {
      "bufferView": 0,
      "byteOffset": 416712,
      "componentType": 5125,
      "count": 32385,
      "type": "SCALAR"
    },
    {
      "bufferView": 2,
      "byteOffset": 1362168,
      "componentType": 5126,
      "count": 14307,
      "max": [
        24.3856201171875,
        25.038721084594727,
        17.881521224975586
      ],
      "min": [
        8.4225435256958,
        -26.7231388092041,
        7.263622283935547
      ],
      "type": "VEC3"
    },
    {
      "bufferView": 2,
      "byteOffset": 1533852,
      "componentType": 5126,
      "count": 14307,
      "max": [
        1.0,
        1.0,
        1.0
      ],
      "min": [
        -1.0,
        -1.0,
        -1.0
      ],
      "type": "VEC3"
    },
    {
      "bufferView": 1,
      "byteOffset": 454056,
      "componentType": 5126,
      "count": 14307,
      "max": [
        6.175361156463623,
        6.314117908477783
      ],
      "min": [
        -5.175361156463623,
        -4.0248918533325195
      ],
      "type": "VEC2"
    },
    {
      "bufferView": 0,
      "byteOffset": 546252,
      "componentType": 5125,
      "count": 32382,
      "type": "SCALAR"
    },
    {
      "bufferView": 2,
      "byteOffset": 1705536,
      "componentType": 5126,
      "count": 15107,
      "max": [
        20.112504959106445,
        14.54955005645752,
        23.021240234375
      ],
      "min": [
        -20.112499237060547,
        -0.7942089438438416,
        17.738929748535156
      ],
      "type": "VEC3"
    },
    {
      "bufferView": 2,
      "byteOffset": 1886820,
      "componentType": 5126,
      "count": 15107,
      "max": [
        1.0,
        1.0,
        1.0
      ],
      "min": [
        -1.0,
        -1.0,
        -1.0
      ],
      "type": "VEC3"
    },
    {
      "bufferView": 1,
      "byteOffset": 568512,
      "componentType": 5126,
      "count": 15107,
      "max": [
        4.5224995613098145,
        1.7541511058807373
      ],
      "min": [
        -3.5224995613098145,
        -1.940420150756836
      ],
      "type": "VEC2"
    },
    {
      "bufferView": 0,
      "byteOffset": 675780,
      "componentType": 5125,
      "count": 39195,
      "type": "SCALAR"
    },
    {
      "bufferView": 2,
      "byteOffset": 2068104,
      "componentType": 5126,
      "count": 65532,
      "max": [
        28.073436737060547,
        39.72581481933594,
        8.827519416809082
      ],
      "min": [
        -27.596342086791992,
        -35.030921936035156,
        1.3538719415664673
      ],
      "type": "VEC3"
    },
    {
      "bufferView": 2,
      "byteOffset": 2854488,
      "componentType": 5126,
      "count": 65532,
      "max": [
        1.0,
        1.0,
        1.0
      ],
      "min": [
        -1.0,
        -1.0,
        -1.0
      ],
      "type": "VEC3"
    },
    {
      "bufferView": 1,
      "byteOffset": 689368,
      "componentType": 5126,
      "count": 65532,
      "max": [
        7.975671768188477,
        7.975673198699951
      ],
      "min": [
        -6.975672721862793,
        -6.975671768188477
      ],
      "type": "VEC2"
    },
    {
      "bufferView": 0,
      "byteOffset": 832560,
      "componentType": 5125,
      "count": 163449,
      "type": "SCALAR"
    },
    {
      "bufferView": 2,
      "byteOffset": 3640872,
      "componentType": 5126,
      "count": 16543,
      "max": [
        27.596342086791992,
        39.72581481933594,
        8.022111892700195
      ],
      "min": [
        -28.07342529296875,
        -3.8357176780700684,
        1.3538719415664673
      ],
      "type": "VEC3"
    },
    {
      "bufferView": 2,
      "byteOffset": 3839388,
      "componentType": 5126,
      "count": 16543,
      "max": [
        1.0,
        1.0,
        1.0
      ],
      "min": [
        -1.0,
        -1.0,
        -1.0
      ],
      "type": "VEC3"
    },
    {
      "bufferView": 1,
      "byteOffset": 1213624,
      "componentType": 5126,
      "count": 16543,
      "max": [
        7.955329418182373,
        4.805566310882568
      ],
      "min": [
        -6.975673198699951,
        -6.975673198699951
      ],
      "type": "VEC2"
    },
    {
      "bufferView": 0,
      "byteOffset": 1486356,
      "componentType": 5125,
      "count": 40005,
      "type": "SCALAR"
    },
    {
      "bufferView": 2,
      "byteOffset": 4037904,
      "componentType": 5126,
      "count": 12468,
      "max": [
        9.906855583190918,
        16.937299728393555,
        39.39561462402344
      ],
      "min": [
        -9.906852722167969,
        -3.181962728500366,
        32.36605453491211
      ],
      "type": "VEC3"
    },
    {
      "bufferView": 2,
      "byteOffset": 4187520,
      "componentType": 5126,
      "count": 12468,
      "max": [
        1.0,
        1.0,
        1.0
      ],
      "min": [
        -1.0,
        -1.0,
        -1.0
      ],
      "type": "VEC3"
    },
    {
      "bufferView": 1,
      "byteOffset": 1345968,
      "componentType": 5126,
      "count": 12468,
      "max": [
        3.321392059326172,
        1.605882167816162
      ],
      "min": [
        -2.32139253616333,
        -2.4179701805114746
      ],
      "type": "VEC2"
    },
    {
      "bufferView": 0,
      "byteOffset": 1646376,
      "componentType": 5125,
      "count": 32211,
      "type": "SCALAR"
    },
    {
      "bufferView": 2,
      "byteOffset": 4337136,
      "componentType": 5126,
      "count": 39015,
      "max": [
        19.872900009155273,
        14.359736442565918,
        21.22051239013672
      ],
      "min": [
        -19.872896194458008,
        -0.6045116782188416,
        19.38858413696289
      ],
      "type": "VEC3"
    },
    {
      "bufferView": 2,
      "byteOffset": 4805316,
      "componentType": 5126,
      "count": 39015,
      "max": [
        0.9999956488609314,
        1.0,
        1.0
      ],
      "min": [
        -0.9999955296516418,
        -1.0,
        -1.0
      ],
      "type": "VEC3"
    },
    {
      "bufferView": 1,
      "byteOffset": 1445712,
      "componentType": 5126,
      "count": 39015,
      "max": [
        4.474579811096191,
        1.4469332695007324
      ],
      "min": [
        -3.4734480381011963,
        -1.902289867401123
      ],
      "type": "VEC2"
    },
    {
      "bufferView": 0,
      "byteOffset": 1775220,
      "componentType": 5125,
      "count": 69618,
      "type": "SCALAR"
    },
    {
      "bufferView": 2,
      "byteOffset": 5273496,
      "componentType": 5126,
      "count": 7652,
      "max": [
        22.324697494506836,
        24.542572021484375,
        12.422138214111328
      ],
      "min": [
        12.666586875915527,
        -20.253414154052734,
        9.247699737548828
      ],
      "type": "VEC3"
    },
    {
      "bufferView": 2,
      "byteOffset": 5365320,
      "componentType": 5126,
      "count": 7652,
      "max": [
        1.0,
        1.0,
        1.0
      ],
      "min": [
        -1.0,
        -1.0,
        -1.0
      ],
      "type": "VEC3"
    },
    {
      "bufferView": 1,
      "byteOffset": 1757832,
      "componentType": 5126,
      "count": 7652,
      "max": [
        5.020173072814941,
        5.020173072814941
      ],
      "min": [
        -4.020173072814941,
        -3.939023494720459
      ],
      "type": "VEC2"
    },
    {
      "bufferView": 0,
      "byteOffset": 2053692,
      "componentType": 5125,
      "count": 18024,
      "type": "SCALAR"
    },
    {
      "bufferView": 2,
      "byteOffset": 5457144,
      "componentType": 5126,
      "count": 7637,
      "max": [
        -12.66659164428711,
        24.542572021484375,
        12.422138214111328
      ],
      "min": [
        -22.324691772460938,
        -20.25341796875,
        9.247699737548828
      ],
      "type": "VEC3"
    },
    {
      "bufferView": 2,
      "byteOffset": 5548788,
      "componentType": 5126,
      "count": 7637,
      "max": [
        1.0,
        1.0,
        1.0
      ],
      "min": [
        -1.0,
        -1.0,
        -1.0
      ],
      "type": "VEC3"
    },
    {
      "bufferView": 1,
      "byteOffset": 1819048,
      "componentType": 5126,
      "count": 7637,
      "max": [
        5.020172119140625,
        5.020172119140625
      ],
      "min": [
        -4.020172119140625,
        -3.9390249252319336
      ],
      "type": "VEC2"
    },
    {
      "bufferView": 0,
      "byteOffset": 2125788,
      "componentType": 5125,
      "count": 18024,
      "type": "SCALAR"
    },
    {
      "bufferView": 2,
      "byteOffset": 5640432,
      "componentType": 5126,
      "count": 6069,
      "max": [
        2.5703418254852295,
        39.69475173950195,
        16.609149932861328
      ],
      "min": [
        -2.5703368186950684,
        -34.89655303955078,
        1.3032833337783813
      ],
      "type": "VEC3"
    },
    {
      "bufferView": 2,
      "byteOffset": 5713260,
      "componentType": 5126,
      "count": 6069,
      "max": [
        1.0,
        1.0,
        1.0
      ],
      "min": [
        -1.0,
        -1.0,
        -1.0
      ],
      "type": "VEC3"
    },
    {
      "bufferView": 1,
      "byteOffset": 1880144,
      "componentType": 5126,
      "count": 6069,
      "max": [
        7.969458103179932,
        7.9485297203063965
      ],
      "min": [
        -6.96945858001709,
        -6.96945858001709
      ],
      "type": "VEC2"
    },
    {
      "bufferView": 0,
      "byteOffset": 2197884,
      "componentType": 5125,
      "count": 12762,
      "type": "SCALAR"
    },
    {
      "bufferView": 2,
      "byteOffset": 5786088,
      "componentType": 5126,
      "count": 41220,
      "max": [
        10.318315505981445,
        26.783203125,
        22.213085174560547
      ],
      "min": [
        -10.318320274353027,
        -24.803592681884766,
        18.45404815673828
      ],
      "type": "VEC3"
    },
    {
      "bufferView": 2,
      "byteOffset": 6280728,
      "componentType": 5126,
      "count": 41220,
      "max": [
        1.0,
        1.0,
        1.0
      ],
      "min": [
        -1.0,
        -1.0,
        -1.0
      ],
      "type": "VEC3"
    },
    {
      "bufferView": 1,
      "byteOffset": 1928696,
      "componentType": 5126,
      "count": 41220,
      "max": [
        5.930208206176758,
        5.930208206176758
      ],
      "min": [
        -4.930208206176758,
        -4.38715124130249
      ],
      "type": "VEC2"
    },
    {
      "bufferView": 0,
      "byteOffset": 2248932,
      "componentType": 5125,
      "count": 77148,
      "type": "SCALAR"
    },
    {
      "bufferView": 2,
      "byteOffset": 6775368,
      "componentType": 5126,
      "count": 46636,
      "max": [
        10.464765548706055,
        17.016630172729492,
        44.11008834838867
      ],
      "min": [
        -10.464762687683105,
        -28.52821922302246,
        23.07040023803711
      ],
      "type": "VEC3"
    },
    {
      "bufferView": 2,
      "byteOffset": 7335000,
      "componentType": 5126,
      "count": 46636,
      "max": [
        1.0,
        1.0,
        1.0
      ],
      "min": [
        -1.0,
        -1.0,
        -1.0
      ],
      "type": "VEC3"
    },
    {
      "bufferView": 1,
      "byteOffset": 2258456,
      "componentType": 5126,
      "count": 46636,
      "max": [
        6.667705535888672,
        6.673890113830566
      ],
      "min": [
        -5.667705059051514,
        -3.1569905281066895
      ],
      "type": "VEC2"
    },
    {
      "bufferView": 0,
      "byteOffset": 2557524,
      "componentType": 5125,
      "count": 89394,
      "type": "SCALAR"
    },
    {
      "bufferView": 2,
      "byteOffset": 7894632,
      "componentType": 5126,
      "count": 3045,
      "max": [
        10.405717849731445,
        37.08573532104492,
        4.280246734619141
      ],
      "min": [
        -10.405714988708496,
        33.902889251708984,
        1.4208070039749146
      ],
      "type": "VEC3"
    },
    {
      "bufferView": 2,
      "byteOffset": 7931172,
      "componentType": 5126,
      "count": 3045,
      "max": [
        0.9998343586921692,
        0.999835193157196,
        1.0
      ],
      "min": [
        -0.999835193157196,
        -0.9998345375061035,
        -1.0
      ],
      "type": "VEC3"
    },
    {
      "bufferView": 1,
      "byteOffset": 2631544,
      "componentType": 5126,
      "count": 3045,
      "max": [
        7.447656154632568,
        4.7931013107299805
      ],
      "min": [
        -6.447655200958252,
        -6.447656154632568
      ],
      "type": "VEC2"
    },
    {
      "bufferView": 0,
      "byteOffset": 2915100,
      "componentType": 5125,
      "count": 7128,
      "type": "SCALAR"
    },
    {
      "bufferView": 2,
      "byteOffset": 7967712,
      "componentType": 5126,
      "count": 4,
      "max": [
        0.550158679485321,
        -28.131235122680664,
        35.46872329711914
      ],
      "min": [
        -0.5501562356948853,
        -28.131235122680664,
        33.4920654296875
      ],
      "type": "VEC3"
    },
    {
      "bufferView": 2,
      "byteOffset": 7967760,
      "componentType": 5126,
      "count": 4,
      "max": [
        0.0,
        -1.0,
        0.0
      ],
      "min": [
        0.0,
        -1.0,
        0.0
      ],
      "type": "VEC3"
    },
    {
      "bufferView": 1,
      "byteOffset": 2655904,
      "componentType": 5126,
      "count": 4,
      "max": [
        0.9995005130767822,
        0.9994993209838867
      ],
      "min": [
        0.0004994869232177734,
        0.0004987716674804688
      ],
      "type": "VEC2"
    },
    {
      "bufferView": 0,
      "byteOffset": 2943612,
      "componentType": 5125,
      "count": 6,
      "type": "SCALAR"
    },
    {
      "bufferView": 2,
      "byteOffset": 7967808,
      "componentType": 5126,
      "count": 24,
      "max": [
        10.359394073486328,
        -22.203317642211914,
        27.774946212768555
      ],
      "min": [
        -10.359392166137695,
        -33.25040054321289,
        9.757794380187988
      ],
      "type": "VEC3"
    },
    {
      "bufferView": 2,
      "byteOffset": 7968096,
      "componentType": 5126,
      "count": 24,
      "max": [
        1.0,
        7.009727482909511e-07,
        1.847691464718082e-06
      ],
      "min": [
        -1.0,
        -1.0,
        -0.004458172712475061
      ],
      "type": "VEC3"
    },
    {
      "bufferView": 1,
      "byteOffset": 2655936,
      "componentType": 5126,
      "count": 24,
      "max": [
        0.9995005130767822,
        0.9995040893554688
      ],
      "min": [
        0.0004994869232177734,
        0.000499725341796875
      ],
      "type": "VEC2"
    },
    {
      "bufferView": 0,
      "byteOffset": 2943636,
      "componentType": 5125,
      "count": 36,
      "type": "SCALAR"
    },
    {
      "bufferView": 2,
      "byteOffset": 7968384,
      "componentType": 5126,
      "count": 347,
      "max": [
        10.161874771118164,
        -22.557214736938477,
        23.936805725097656
      ],
      "min": [
        -10.161871910095215,
        -32.96384811401367,
        17.17359161376953
      ],
      "type": "VEC3"
    },
    {
      "bufferView": 2,
      "byteOffset": 7972548,
      "componentType": 5126,
      "count": 347,
      "max": [
        1.0,
        0.0004948644782416523,
        0.0002028850285569206
      ],
      "min": [
        -1.0,
        -1.0,
        -0.0002673094277270138
      ],
      "type": "VEC3"
    },
    {
      "bufferView": 1,
      "byteOffset": 2656128,
      "componentType": 5126,
      "count": 347,
      "max": [
        0.9494272470474243,
        0.792302131652832
      ],
      "min": [
        0.129868745803833,
        0.20769762992858887
      ],
      "type": "VEC2"
    },
    {
      "bufferView": 0,
      "byteOffset": 2943780,
      "componentType": 5125,
      "count": 438,
      "type": "SCALAR"
    },
    {
      "bufferView": 2,
      "byteOffset": 7976712,
      "componentType": 5126,
      "count": 1724,
      "max": [
        22.475366592407227,
        26.740575790405273,
        37.35231399536133
      ],
      "min": [
        -22.475360870361328,
        -33.29935073852539,
        11.297159194946289
      ],
      "type": "VEC3"
    },
    {
      "bufferView": 2,
      "byteOffset": 7997400,
      "componentType": 5126,
      "count": 1724,
      "max": [
        1.0,
        1.0,
        1.0
      ],
      "min": [
        -1.0,
        -1.0,
        -1.0
      ],
      "type": "VEC3"
    },
    {
      "bufferView": 1,
      "byteOffset": 2658904,
      "componentType": 5126,
      "count": 1724,
      "max": [
        7.619039058685303,
        7.619039058685303
      ],
      "min": [
        -6.619039058685303,
        -3.6382007598876953
      ],
      "type": "VEC2"
    },
    {
      "bufferView": 0,
      "byteOffset": 2945532,
      "componentType": 5125,
      "count": 2904,
      "type": "SCALAR"
    },
    {
      "bufferView": 2,
      "byteOffset": 8018088,
      "componentType": 5126,
      "count": 1301,
      "max": [
        27.97061538696289,
        39.50575637817383,
        18.60464096069336
      ],
      "min": [
        -27.970609664916992,
        -34.7982177734375,
        5.742961406707764
      ],
      "type": "VEC3"
    },
    {
      "bufferView": 2,
      "byteOffset": 8033700,
      "componentType": 5126,
      "count": 1301,
      "max": [
        1.0,
        1.0,
        1.0
      ],
      "min": [
        -1.0,
        -1.0,
        -1.0
      ],
      "type": "VEC3"
    },
    {
      "bufferView": 1,
      "byteOffset": 2672696,
      "componentType": 5126,
      "count": 1301,
      "max": [
        8.752607345581055,
        4.994297504425049
      ],
      "min": [
        -7.752605438232422,
        -3.995887279510498
      ],
      "type": "VEC2"
    },
    {
      "bufferView": 0,
      "byteOffset": 2957148,
      "componentType": 5125,
      "count": 2646,
      "type": "SCALAR"
    },
    {
      "bufferView": 2,
      "byteOffset": 8049312,
      "componentType": 5126,
      "count": 52940,
      "max": [
        11.02077579498291,
        -18.58290672302246,
        47.643310546875
      ],
      "min": [
        -11.020773887634277,
        -29.330551147460938,
        8.619065284729004
      ],
      "type": "VEC3"
    },
    {
      "bufferView": 2,
      "byteOffset": 8684592,
      "componentType": 5126,
      "count": 52940,
      "max": [
        1.0,
        1.0,
        1.0
      ],
      "min": [
        -1.0,
        -1.0,
        -1.0
      ],
      "type": "VEC3"
    },
    {
      "bufferView": 1,
      "byteOffset": 2683104,
      "componentType": 5126,
      "count": 52940,
      "max": [
        6.835599422454834,
        6.8327531814575195
      ],
      "min": [
        -5.835599422454834,
        -3.6282057762145996
      ],
      "type": "VEC2"
    },
    {
      "bufferView": 0,
      "byteOffset": 2967732,
      "componentType": 5125,
      "count": 128535,
      "type": "SCALAR"
    },
    {
      "bufferView": 2,
      "byteOffset": 9319872,
      "componentType": 5126,
      "count": 7282,
      "max": [
        31.045019149780273,
        39.70082473754883,
        1.639243721961975
      ],
      "min": [
        -31.045013427734375,
        -39.687896728515625,
        0.2110917568206787
      ],
      "type": "VEC3"
    },
    {
      "bufferView": 2,
      "byteOffset": 9407256,
      "componentType": 5126,
      "count": 7282,
      "max": [
        1.0,
        1.0,
        1.0
      ],
      "min": [
        -1.0,
        -1.0,
        -0.9992908239364624
      ],
      "type": "VEC3"
    },
    {
      "bufferView": 1,
      "byteOffset": 3106624,
      "componentType": 5126,
      "count": 7282,
      "max": [
        16.06641387939453,
        16.066417694091797
      ],
      "min": [
        -15.06641674041748,
        -15.066415786743164
      ],
      "type": "VEC2"
    },
    {
      "bufferView": 0,
      "byteOffset": 3481872,
      "componentType": 5125,
      "count": 8886,
      "type": "SCALAR"
    },
    {
      "bufferView": 2,
      "byteOffset": 9494640,
      "componentType": 5126,
      "count": 18477,
      "max": [
        24.384124755859375,
        16.518592834472656,
        51.92441177368164
      ],
      "min": [
        -24.384130477905273,
        -28.443960189819336,
        9.03657341003418
      ],
      "type": "VEC3"
    },
    {
      "bufferView": 2,
      "byteOffset": 9716364,
      "componentType": 5126,
      "count": 18477,
      "max": [
        1.0,
        1.0,
        1.0
      ],
      "min": [
        -1.0,
        -1.0,
        -1.0
      ],
      "type": "VEC3"
    },
    {
      "bufferView": 1,
      "byteOffset": 3164880,
      "componentType": 5126,
      "count": 18477,
      "max": [
        11.552593231201172,
        -0.08781683444976807
      ],
      "min": [
        -1.9874213933944702,
        -14.09870719909668
      ],
      "type": "VEC2"
    },
    {
      "bufferView": 0,
      "byteOffset": 3517416,
      "componentType": 5125,
      "count": 62442,
      "type": "SCALAR"
    },
    {
      "bufferView": 2,
      "byteOffset": 9938088,
      "componentType": 5126,
      "count": 18210,
      "max": [
        28.07343292236328,
        39.57671356201172,
        40.04741287231445
      ],
      "min": [
        -28.07342529296875,
        -35.030921936035156,
        7.170149803161621
      ],
      "type": "VEC3"
    },
    {
      "bufferView": 2,
      "byteOffset": 10156608,
      "componentType": 5126,
      "count": 18210,
      "max": [
        1.0,
        1.0,
        1.0
      ],
      "min": [
        -1.0,
        -1.0,
        -1.0
      ],
      "type": "VEC3"
    },
    {
      "bufferView": 1,
      "byteOffset": 3312696,
      "componentType": 5126,
      "count": 18210,
      "max": [
        18.372535705566406,
        10.614847183227539
      ],
      "min": [
        -7.792895317077637,
        -10.21906566619873
      ],
      "type": "VEC2"
    },
    {
      "bufferView": 0,
      "byteOffset": 3767184,
      "componentType": 5125,
      "count": 52359,
      "type": "SCALAR"
    },
    {
      "bufferView": 2,
      "byteOffset": 10375128,
      "componentType": 5126,
      "count": 228,
      "max": [
        27.63776397705078,
        8.017168045043945,
        6.513942241668701
      ],
      "min": [
        -27.63775634765625,
        -27.37888526916504,
        1.5836646556854248
      ],
      "type": "VEC3"
    },
    {
      "bufferView": 2,
      "byteOffset": 10377864,
      "componentType": 5126,
      "count": 228,
      "max": [
        1.0,
        0.00021607619419228286,
        0.00014954213111195713
      ],
      "min": [
        -1.0,
        -1.0,
        -0.0002914931101258844
      ],
      "type": "VEC3"
    },
    {
      "bufferView": 1,
      "byteOffset": 3458376,
      "componentType": 5126,
      "count": 228,
      "max": [
        8.916723251342773,
        1.008865237236023
      ],
      "min": [
        -7.916731834411621,
        0.15223228931427002
      ],
      "type": "VEC2"
    },
    {
      "bufferView": 0,
      "byteOffset": 3976620,
      "componentType": 5125,
      "count": 270,
      "type": "SCALAR"
    },
    {
      "bufferView": 2,
      "byteOffset": 10380600,
      "componentType": 5126,
      "count": 873,
      "max": [
        27.455434799194336,
        39.46649932861328,
        1.353582739830017
      ],
      "min": [
        -27.45542335510254,
        -26.42217254638672,
        0.2110917568206787
      ],
      "type": "VEC3"
    },
    {
      "bufferView": 2,
      "byteOffset": 10391076,
      "componentType": 5126,
      "count": 873,
      "max": [
        1.0,
        0.9992969036102295,
        0.0009707547724246979
      ],
      "min": [
        -1.0,
        -1.0,
        -0.1579955816268921
      ],
      "type": "VEC3"
    },
    {
      "bufferView": 1,
      "byteOffset": 3460200,
      "componentType": 5126,
      "count": 873,
      "max": [
        58.43956756591797,
        1.5638395547866821
      ],
      "min": [
        -57.43958282470703,
        -0.5638394355773926
      ],
      "type": "VEC2"
    },
    {
      "bufferView": 0,
      "byteOffset": 3977700,
      "componentType": 5125,
      "count": 972,
      "type": "SCALAR"
    },
    {
      "bufferView": 2,
      "byteOffset": 10401552,
      "componentType": 5126,
      "count": 239,
      "max": [
        21.528934478759766,
        27.52890968322754,
        7.295762538909912
      ],
      "min": [
        -21.528932571411133,
        -31.398725509643555,
        1.1267977952957153
      ],
      "type": "VEC3"
    },
    {
      "bufferView": 2,
      "byteOffset": 10404420,
      "componentType": 5126,
      "count": 239,
      "max": [
        0.9225515723228455,
        0.7231184840202332,
        0.018303701654076576
      ],
      "min": [
        -0.9225612878799438,
        -1.0,
        -0.09981895238161087
      ],
      "type": "VEC3"
    },
    {
      "bufferView": 1,
      "byteOffset": 3467184,
      "componentType": 5126,
      "count": 239,
      "max": [
        11.493963241577148,
        1.0024391412734985
      ],
      "min": [
        -10.493963241577148,
        0.016391277313232422
      ],
      "type": "VEC2"
    },
    {
      "bufferView": 0,
      "byteOffset": 3981588,
      "componentType": 5125,
      "count": 267,
      "type": "SCALAR"
    },
    {
      "bufferView": 2,
      "byteOffset": 10407288,
      "componentType": 5126,
      "count": 8206,
      "max": [
        26.5192813873291,
        38.8106575012207,
        38.15623092651367
      ],
      "min": [
        -26.519269943237305,
        -32.930294036865234,
        2.452763080596924
      ],
      "type": "VEC3"
    },
    {
      "bufferView": 2,
      "byteOffset": 10505760,
      "componentType": 5126,
      "count": 8206,
      "max": [
        1.0,
        1.0,
        0.05121716111898422
      ],
      "min": [
        -1.0,
        -1.0,
        -0.06024939566850662
      ],
      "type": "VEC3"
    },
    {
      "bufferView": 1,
      "byteOffset": 3469096,
      "componentType": 5126,
      "count": 8206,
      "max": [
        35.58182144165039,
        14.81477165222168
      ],
      "min": [
        -34.581825256347656,
        -12.889869689941406
      ],
      "type": "VEC2"
    },
    {
      "bufferView": 0,
      "byteOffset": 3982656,
      "componentType": 5125,
      "count": 9900,
      "type": "SCALAR"
    },
    {
      "bufferView": 2,
      "byteOffset": 10604232,
      "componentType": 5126,
      "count": 1018,
      "max": [
        2.6874780654907227,
        -32.896724700927734,
        25.783714294433594
      ],
      "min": [
        -2.6874780654907227,
        -33.09708786010742,
        21.316043853759766
      ],
      "type": "VEC3"
    },
    {
      "bufferView": 2,
      "byteOffset": 10616448,
      "componentType": 5126,
      "count": 1018,
      "max": [
        0.8147363066673279,
        1.0,
        0.6011266708374023
      ],
      "min": [
        -0.8147751092910767,
        -1.0,
        -0.6011096835136414
      ],
      "type": "VEC3"
    },
    {
      "bufferView": 1,
      "byteOffset": 3534744,
      "componentType": 5126,
      "count": 1018,
      "max": [
        0.49756965041160583,
        0.9995003342628479
      ],
      "min": [
        0.0004994571208953857,
        0.013149738311767578
      ],
      "type": "VEC2"
    },
    {
      "bufferView": 0,
      "byteOffset": 4022256,
      "componentType": 5125,
      "count": 2280,
      "type": "SCALAR"
    },
    {
      "bufferView": 2,
      "byteOffset": 10628664,
      "componentType": 5126,
      "count": 1064,
      "max": [
        34.349002838134766,
        44.66273498535156,
        0.021829651668667793
      ],
      "min": [
        -34.3489990234375,
        -44.690643310546875,
        -0.15000055730342865
      ],
      "type": "VEC3"
    },
    {
      "bufferView": 2,
      "byteOffset": 10641432,
      "componentType": 5126,
      "count": 1064,
      "max": [
        0.9983522295951843,
        1.0,
        1.0
      ],
      "min": [
        -0.9983518123626709,
        -1.0,
        -1.0
      ],
      "type": "VEC3"
    },
    {
      "bufferView": 1,
      "byteOffset": 3542888,
      "componentType": 5126,
      "count": 1064,
      "max": [
        6.857593536376953,
        6.882383823394775
      ],
      "min": [
        -5.840130805969238,
        -5.882383346557617
      ],
      "type": "VEC2"
    },
    {
      "bufferView": 0,
      "byteOffset": 4031376,
      "componentType": 5125,
      "count": 2988,
      "type": "SCALAR"
    },
    {
      "bufferView": 2,
      "byteOffset": 10654200,
      "componentType": 5126,
      "count": 4327,
      "max": [
        34.54899215698242,
        44.86289978027344,
        0.17196311056613922
      ],
      "min": [
        -34.549007415771484,
        -44.89064407348633,
        0.010732459835708141
      ],
      "type": "VEC3"
    },
    {
      "bufferView": 2,
      "byteOffset": 10706124,
      "componentType": 5126,
      "count": 4327,
      "max": [
        0.9983542561531067,
        1.0,
        1.0
      ],
      "min": [
        -0.9983543753623962,
        -1.0,
        -1.0
      ],
      "type": "VEC3"
    },
    {
      "bufferView": 1,
      "byteOffset": 3551400,
      "componentType": 5126,
      "count": 4327,
      "max": [
        6.063370704650879,
        6.109591007232666
      ],
      "min": [
        -5.063370227813721,
        -5.1095967292785645
      ],
      "type": "VEC2"
    },
    {
      "bufferView": 0,
      "byteOffset": 4043328,
      "componentType": 5125,
      "count": 12000,
      "type": "SCALAR"
    }
  ],
  "asset": {
    "extras": {
      "author": "iwalk (https://sketchfab.com/iwalk)",
      "license": "CC-BY-4.0 (http://creativecommons.org/licenses/by/4.0/)",
      "source": "https://sketchfab.com/3d-models/alexander-nevsky-cathedral-sofia-d46c08dacb074203bb629503e7025292",
      "title": "Alexander Nevsky Cathedral – Sofia"
    },
    "generator": "Sketchfab-12.74.0",
    "version": "2.0"
  },
  "bufferViews": [
    {
      "buffer": 0,
      "byteLength": 4091328,
      "name": "floatBufferViews",
      "target": 34963
    },
    {
      "buffer": 0,
      "byteLength": 3586016,
      "byteOffset": 4091328,
      "byteStride": 8,
      "name": "floatBufferViews",
      "target": 34962
    },
    {
      "buffer": 0,
      "byteLength": 10758048,
      "byteOffset": 7677344,
      "byteStride": 12,
      "name": "floatBufferViews",
      "target": 34962
    }
  ],
  "buffers": [
    {
      "byteLength": 18435392,
      "uri": "scene.bin"
    }
  ],
  "images": [
    {
      "uri": "textures/AN_walls_baseColor.jpeg"
    },
    {
      "uri": "textures/AN_detail05_baseColor.jpeg"
    },
    {
      "uri": "textures/AN_detail01_baseColor.jpeg"
    },
    {
      "uri": "textures/AN_detail02_baseColor.jpeg"
    },
    {
      "uri": "textures/AN_detail04_baseColor.jpeg"
    },
    {
      "uri": "textures/AN_detail03_baseColor.jpeg"
    },
    {
      "uri": "textures/AN_base2_baseColor.jpeg"
    },
    {
      "uri": "textures/AN_roof_Gold_baseColor.jpeg"
    },
    {
      "uri": "textures/AN_roof_baseColor.jpeg"
    },
    {
      "uri": "textures/AN_door01_baseColor.jpeg"
    },
    {
      "uri": "textures/AN_windows_mesh01_baseColor.jpeg"
    },
    {
      "uri": "textures/AN_door_baseColor.jpeg"
    },
    {
      "uri": "textures/AN_windows_mesh_baseColor.jpeg"
    },
    {
      "uri": "textures/AN_detail06_baseColor.jpeg"
    },
    {
      "uri": "textures/AN_base_baseColor.jpeg"
    },
    {
      "uri": "textures/AN_Concrete_baseColor.jpeg"
    }
  ],
  "materials": [
    {
      "name": "AN_walls",
      "pbrMetallicRoughness": {
        "baseColorTexture": {
          "index": 0
        },
        "metallicFactor": 0.4,
        "roughnessFactor": 0.707107
      }
    },
    {
      "name": "AN_detail05",
      "pbrMetallicRoughness": {
        "baseColorTexture": {
          "index": 1
        },
        "metallicFactor": 0.4,
        "roughnessFactor": 0.707107
      }
    },
    {
      "name": "AN_detail01",
      "pbrMetallicRoughness": {
        "baseColorTexture": {
          "index": 2
        },
        "metallicFactor": 0.4,
        "roughnessFactor": 0.707107
      }
    },
    {
      "name": "AN_detail02",
      "pbrMetallicRoughness": {
        "baseColorTexture": {
          "index": 3
        },
        "metallicFactor": 0.4,
        "roughnessFactor": 0.707107
      }
    },
    {
      "name": "AN_detail04",
      "pbrMetallicRoughness": {
        "baseColorTexture": {
          "index": 4
        },
        "metallicFactor": 0.4,
        "roughnessFactor": 0.707107
      }
    },
    {
      "name": "AN_detail03",
      "pbrMetallicRoughness": {
        "baseColorTexture": {
          "index": 5
        },
        "metallicFactor": 0.4,
        "roughnessFactor": 0.707107
      }
    },
    {
      "name": "AN_base2",
      "pbrMetallicRoughness": {
        "baseColorTexture": {
          "index": 6
        },
        "metallicFactor": 0.4,
        "roughnessFactor": 0.707107
      }
    },
    {
      "name": "AN_roof_Gold",
      "pbrMetallicRoughness": {
        "baseColorTexture": {
          "index": 7
        },
        "metallicFactor": 0.4,
        "roughnessFactor": 0.707107
      }
    },
    {
      "name": "AN_roof",
      "pbrMetallicRoughness": {
        "baseColorTexture": {
          "index": 8
        },
        "metallicFactor": 0.4,
        "roughnessFactor": 0.707107
      }
    },
    {
      "name": "AN_door01",
      "pbrMetallicRoughness": {
        "baseColorTexture": {
          "index": 9
        },
        "metallicFactor": 0.4,
        "roughnessFactor": 0.707107
      }
    },
    {
      "name": "AN_windows_mesh01",
      "pbrMetallicRoughness": {
        "baseColorTexture": {
          "index": 10
        },
        "metallicFactor": 0.4,
        "roughnessFactor": 0.707107
      }
    },
    {
      "name": "AN_door",
      "pbrMetallicRoughness": {
        "baseColorTexture": {
          "index": 11
        },
        "metallicFactor": 0.4,
        "roughnessFactor": 0.707107
      }
    },
    {
      "name": "AN_windows_mesh",
      "pbrMetallicRoughness": {
        "baseColorTexture": {
          "index": 12
        },
        "metallicFactor": 0.4,
        "roughnessFactor": 0.707107
      }
    },
    {
      "name": "AN_detail06",
      "pbrMetallicRoughness": {
        "baseColorTexture": {
          "index": 13
        },
        "metallicFactor": 0.4,
        "roughnessFactor": 0.707107
      }
    },
    {
      "name": "AN_base",
      "pbrMetallicRoughness": {
        "baseColorTexture": {
          "index": 14
        },
        "metallicFactor": 0.4,
        "roughnessFactor": 0.707107
      }
    },
    {
      "name": "AN_Concrete",
      "pbrMetallicRoughness": {
        "baseColorTexture": {
          "index": 15
        },
        "metallicFactor": 0.4,
        "roughnessFactor": 0.707107
      }
    }
  ],
  "meshes": [
    {
      "name": "Object_0",
      "primitives": [
        {
          "attributes": {
            "NORMAL": 1,
            "POSITION": 0,
            "TEXCOORD_0": 2
          },
          "indices": 3,
          "material": 0,
          "mode": 4
        }
      ]
    },
    {
      "name": "Object_1",
      "primitives": [
        {
          "attributes": {
            "NORMAL": 5,
            "POSITION": 4,
            "TEXCOORD_0": 6
          },
          "indices": 7,
          "material": 0,
          "mode": 4
        }
      ]
    },
    {
      "name": "Object_2",
      "primitives": [
        {
          "attributes": {
            "NORMAL": 9,
            "POSITION": 8,
            "TEXCOORD_0": 10
          },
          "indices": 11,
          "material": 0,
          "mode": 4
        }
      ]
    },
    {
      "name": "Object_3",
      "primitives": [
        {
          "attributes": {
            "NORMAL": 13,
            "POSITION": 12,
            "TEXCOORD_0": 14
          },
          "indices": 15,
          "material": 0,
          "mode": 4
        }
      ]
    },
    {
      "name": "Object_4",
      "primitives": [
        {
          "attributes": {
            "NORMAL": 17,
            "POSITION": 16,
            "TEXCOORD_0": 18
          },
          "indices": 19,
          "material": 0,
          "mode": 4
        }
      ]
    },
    {
      "name": "Object_5",
      "primitives": [
        {
          "attributes": {
            "NORMAL": 21,
            "POSITION": 20,
            "TEXCOORD_0": 22
          },
          "indices": 23,
          "material": 0,
          "mode": 4
        }
      ]
    },
    {
      "name": "Object_6",
      "primitives": [
        {
          "attributes": {
            "NORMAL": 25,
            "POSITION": 24,
            "TEXCOORD_0": 26
          },
          "indices": 27,
          "material": 0,
          "mode": 4
        }
      ]
    },
    {
      "name": "Object_7",
      "primitives": [
        {
          "attributes": {
            "NORMAL": 29,
            "POSITION": 28,
            "TEXCOORD_0": 30
          },
          "indices": 31,
          "material": 0,
          "mode": 4
        }
      ]
    },
    {
      "name": "Object_8",
      "primitives": [
        {
          "attributes": {
            "NORMAL": 33,
            "POSITION": 32,
            "TEXCOORD_0": 34
          },
          "indices": 35,
          "material": 0,
          "mode": 4
        }
      ]
    },
    {
      "name": "Object_9",
      "primitives": [
        {
          "attributes": {
            "NORMAL": 37,
            "POSITION": 36,
            "TEXCOORD_0": 38
          },
          "indices": 39,
          "material": 0,
          "mode": 4
        }
      ]
    },
    {
      "name": "Object_10",
      "primitives": [
        {
          "attributes": {
            "NORMAL": 41,
            "POSITION": 40,
            "TEXCOORD_0": 42
          },
          "indices": 43,
          "material": 0,
          "mode": 4
        }
      ]
    },
    {
      "name": "Object_11",
      "primitives": [
        {
          "attributes": {
            "NORMAL": 45,
            "POSITION": 44,
            "TEXCOORD_0": 46
          },
          "indices": 47,
          "material": 0,
          "mode": 4
        }
      ]
    },
    {
      "name": "Object_12",
      "primitives": [
        {
          "attributes": {
            "NORMAL": 49,
            "POSITION": 48,
            "TEXCOORD_0": 50
          },
          "indices": 51,
          "material": 0,
          "mode": 4
        }
      ]
    },
    {
      "name": "Object_13",
      "primitives": [
        {
          "attributes": {
            "NORMAL": 53,
            "POSITION": 52,
            "TEXCOORD_0": 54
          },
          "indices": 55,
          "material": 0,
          "mode": 4
        }
      ]
    },
    {
      "name": "Object_14",
      "primitives": [
        {
          "attributes": {
            "NORMAL": 57,
            "POSITION": 56,
            "TEXCOORD_0": 58
          },
          "indices": 59,
          "material": 0,
          "mode": 4
        }
      ]
    },
    {
      "name": "Object_15",
      "primitives": [
        {
          "attributes": {
            "NORMAL": 61,
            "POSITION": 60,
            "TEXCOORD_0": 62
          },
          "indices": 63,
          "material": 1,
          "mode": 4
        }
      ]
    },
    {
      "name": "Object_16",
      "primitives": [
        {
          "attributes": {
            "NORMAL": 65,
            "POSITION": 64,
            "TEXCOORD_0": 66
          },
          "indices": 67,
          "material": 2,
          "mode": 4
        }
      ]
    },
    {
      "name": "Object_17",
      "primitives": [
        {
          "attributes": {
            "NORMAL": 69,
            "POSITION": 68,
            "TEXCOORD_0": 70
          },
          "indices": 71,
          "material": 3,
          "mode": 4
        }
      ]
    },
    {
      "name": "Object_18",
      "primitives": [
        {
          "attributes": {
            "NORMAL": 73,
            "POSITION": 72,
            "TEXCOORD_0": 74
          },
          "indices": 75,
          "material": 4,
          "mode": 4
        }
      ]
    },
    {
      "name": "Object_19",
      "primitives": [
        {
          "attributes": {
            "NORMAL": 77,
            "POSITION": 76,
            "TEXCOORD_0": 78
          },
          "indices": 79,
          "material": 5,
          "mode": 4
        }
      ]
    },
    {
      "name": "Object_20",
      "primitives": [
        {
          "attributes": {
            "NORMAL": 81,
            "POSITION": 80,
            "TEXCOORD_0": 82
          },
          "indices": 83,
          "material": 0,
          "mode": 4
        }
      ]
    },
    {
      "name": "Object_21",
      "primitives": [
        {
          "attributes": {
            "NORMAL": 85,
            "POSITION": 84,
            "TEXCOORD_0": 86
          },
          "indices": 87,
          "material": 6,
          "mode": 4
        }
      ]
    },
    {
      "name": "Object_22",
      "primitives": [
        {
          "attributes": {
            "NORMAL": 89,
            "POSITION": 88,
            "TEXCOORD_0": 90
          },
          "indices": 91,
          "material": 7,
          "mode": 4
        }
      ]
    },
    {
      "name": "Object_23",
      "primitives": [
        {
          "attributes": {
            "NORMAL": 93,
            "POSITION": 92,
            "TEXCOORD_0": 94
          },
          "indices": 95,
          "material": 8,
          "mode": 4
        }
      ]
    },
    {
      "name": "Object_24",
      "primitives": [
        {
          "attributes": {
            "NORMAL": 97,
            "POSITION": 96,
            "TEXCOORD_0": 98
          },
          "indices": 99,
          "material": 9,
          "mode": 4
        }
      ]
    },
    {
      "name": "Object_25",
      "primitives": [
        {
          "attributes": {
            "NORMAL": 101,
            "POSITION": 100,
            "TEXCOORD_0": 102
          },
          "indices": 103,
          "material": 10,
          "mode": 4
        }
      ]
    },
    {
      "name": "Object_26",
      "primitives": [
        {
          "attributes": {
            "NORMAL": 105,
            "POSITION": 104,
            "TEXCOORD_0": 106
          },
          "indices": 107,
          "material": 11,
          "mode": 4
        }
      ]
    },
    {
      "name": "Object_27",
      "primitives": [
        {
          "attributes": {
            "NORMAL": 109,
            "POSITION": 108,
            "TEXCOORD_0": 110
          },
          "indices": 111,
          "material": 12,
          "mode": 4
        }
      ]
    },
    {
      "name": "Object_28",
      "primitives": [
        {
          "attributes": {
            "NORMAL": 113,
            "POSITION": 112,
            "TEXCOORD_0": 114
          },
          "indices": 115,
          "material": 13,
          "mode": 4
        }
      ]
    },
    {
      "name": "Object_29",
      "primitives": [
        {
          "attributes": {
            "NORMAL": 117,
            "POSITION": 116,
            "TEXCOORD_0": 118
          },
          "indices": 119,
          "material": 14,
          "mode": 4
        }
      ]
    },
    {
      "name": "Object_30",
      "primitives": [
        {
          "attributes": {
            "NORMAL": 121,
            "POSITION": 120,
            "TEXCOORD_0": 122
          },
          "indices": 123,
          "material": 15,
          "mode": 4
        }
      ]
    }
  ],
  "nodes": [
    {
      "children": [
        1
      ],
      "matrix": [
        1.0,
        0.0,
        0.0,
        0.0,
        0.0,
        2.220446049250313e-16,
        -1.0,
        0.0,
        0.0,
        1.0,
        2.220446049250313e-16,
        0.0,
        0.0,
        0.0,
        0.0,
        1.0
      ],
      "name": "Sketchfab_model"
    },
    {
      "children": [
        2
      ],
      "name": "root"
    },
    {
      "children": [
        3
      ],
      "matrix": [
        1.0,
        0.0,
        0.0,
        0.0,
        0.0,
        2.220446049250313e-16,
        1.0,
        0.0,
        0.0,
        -1.0,
        2.220446049250313e-16,
        0.0,
        0.0,
        0.0,
        0.0,
        1.0
      ],
      "name": "GLTF_SceneRootNode"
    },
    {
      "children": [
        4,
        6,
        8,
        10,
        12,
        14,
        17,
        19,
        21,
        23,
        25,
        27,
        29,
        31,
        33,
        35,
        37,
        39,
        41,
        43,
        45,
        47,
        49,
        51,
        53,
        55,
        57,
        59,
        61,
        63
      ],
      "name": "RootNode_0"
    },
    {
      "children": [
        5
      ],
      "matrix": [
        1.0,
        0.0,
        0.0,
        0.0,
        0.0,
        0.0,
        -1.0,
        0.0,
        -0.0,
        1.0,
        0.0,
        0.0,
        0.0,
        0.0,
        0.0,
        1.0
      ],
      "name": "AN_Walls_14_1"
    },
    {
      "mesh": 0,
      "name": "Object_5"
    },
    {
      "children": [
        7
      ],
      "matrix": [
        1.0,
        0.0,
        0.0,
        0.0,
        0.0,
        0.0,
        -1.0,
        0.0,
        -0.0,
        1.0,
        0.0,
        0.0,
        0.0,
        0.0,
        0.0,
        1.0
      ],
      "name": "AN_Walls_13_2"
    },
    {
      "mesh": 1,
      "name": "Object_7"
    },
    {
      "children": [
        9
      ],
      "matrix": [
        1.0,
        0.0,
        0.0,
        0.0,
        0.0,
        0.0,
        -1.0,
        0.0,
        -0.0,
        1.0,
        0.0,
        0.0,
        0.0,
        0.0,
        0.0,
        1.0
      ],
      "name": "AN_Walls_12_3"
    },
    {
      "mesh": 2,
      "name": "Object_9"
    },
    {
      "children": [
        11
      ],
      "matrix": [
        1.0,
        0.0,
        0.0,
        0.0,
        0.0,
        0.0,
        -1.0,
        0.0,
        -0.0,
        1.0,
        0.0,
        0.0,
        0.0,
        0.0,
        0.0,
        1.0
      ],
      "name": "AN_Walls_11_4"
    },
    {
      "mesh": 3,
      "name": "Object_11"
    },
    {
      "children": [
        13
      ],
      "matrix": [
        1.0,
        0.0,
        0.0,
        0.0,
        0.0,
        0.0,
        -1.0,
        0.0,
        -0.0,
        1.0,
        0.0,
        0.0,
        0.0,
        0.0,
        0.0,
        1.0
      ],
      "name": "AN_Walls_10_5"
    },
    {
      "mesh": 4,
      "name": "Object_13"
    },
    {
      "children": [
        15,
        16
      ],
      "matrix": [
        1.0,
        0.0,
        0.0,
        0.0,
        0.0,
        0.0,
        -1.0,
        0.0,
        -0.0,
        1.0,
        0.0,
        0.0,
        0.0,
        0.0,
        0.0,
        1.0
      ],
      "name": "AN_Walls_09_6"
    },
    {
      "mesh": 5,
      "name": "Object_15"
    },
    {
      "mesh": 6,
      "name": "Object_16"
    },
    {
      "children": [
        18
      ],
      "matrix": [
        1.0,
        0.0,
        0.0,
        0.0,
        0.0,
        0.0,
        -1.0,
        0.0,
        -0.0,
        1.0,
        0.0,
        0.0,
        0.0,
        0.0,
        0.0,
        1.0
      ],
      "name": "AN_Walls_08_7"
    },
    {
      "mesh": 7,
      "name": "Object_18"
    },
    {
      "children": [
        20
      ],
      "matrix": [
        1.0,
        0.0,
        0.0,
        0.0,
        0.0,
        0.0,
        -1.0,
        0.0,
        -0.0,
        1.0,
        0.0,
        0.0,
        0.0,
        0.0,
        0.0,
        1.0
      ],
      "name": "AN_Walls_07_8"
    },
    {
      "mesh": 8,
      "name": "Object_20"
    },
    {
      "children": [
        22
      ],
      "matrix": [
        1.0,
        0.0,
        0.0,
        0.0,
        0.0,
        0.0,
        -1.0,
        0.0,
        -0.0,
        1.0,
        0.0,
        0.0,
        0.0,
        0.0,
        0.0,
        1.0
      ],
      "name": "AN_Walls_06_9"
    },
    {
      "mesh": 9,
      "name": "Object_22"
    },
    {
      "children": [
        24
      ],
      "matrix": [
        1.0,
        0.0,
        0.0,
        0.0,
        0.0,
        0.0,
        -1.0,
        0.0,
        -0.0,
        1.0,
        0.0,
        0.0,
        0.0,
        0.0,
        0.0,
        1.0
      ],
      "name": "AN_Walls_05_10"
    },
    {
      "mesh": 10,
      "name": "Object_24"
    },
    {
      "children": [
        26
      ],
      "matrix": [
        1.0,
        0.0,
        0.0,
        0.0,
        0.0,
        0.0,
        -1.0,
        0.0,
        -0.0,
        1.0,
        0.0,
        0.0,
        0.0,
        0.0,
        0.0,
        1.0
      ],
      "name": "AN_Walls_04_11"
    },
    {
      "mesh": 11,
      "name": "Object_26"
    },
    {
      "children": [
        28
      ],
      "matrix": [
        1.0,
        0.0,
        0.0,
        0.0,
        0.0,
        0.0,
        -1.0,
        0.0,
        -0.0,
        1.0,
        0.0,
        0.0,
        0.0,
        0.0,
        0.0,
        1.0
      ],
      "name": "AN_Walls_03_12"
    },
    {
      "mesh": 12,
      "name": "Object_28"
    },
    {
      "children": [
        30
      ],
      "matrix": [
        1.0,
        0.0,
        0.0,
        0.0,
        0.0,
        0.0,
        -1.0,
        0.0,
        -0.0,
        1.0,
        0.0,
        0.0,
        0.0,
        0.0,
        0.0,
        1.0
      ],
      "name": "AN_Walls_02_13"
    },
    {
      "mesh": 13,
      "name": "Object_30"
    },
    {
      "children": [
        32
      ],
      "matrix": [
        1.0,
        0.0,
        0.0,
        0.0,
        0.0,
        0.0,
        -1.0,
        0.0,
        -0.0,
        1.0,
        0.0,
        0.0,
        0.0,
        0.0,
        0.0,
        1.0
      ],
      "name": "AN_Walls_01_14"
    },
    {
      "mesh": 14,
      "name": "Object_32"
    },
    {
      "children": [
        34
      ],
      "matrix": [
        1.0,
        0.0,
        0.0,
        0.0,
        0.0,
        0.0,
        -1.0,
        0.0,
        -0.0,
        1.0,
        0.0,
        0.0,
        0.0,
        0.0,
        0.0,
        1.0
      ],
      "name": "AN_detail05_15"
    },
    {
      "mesh": 15,
      "name": "Object_34"
    },
    {
      "children": [
        36
      ],
      "matrix": [
        1.0,
        0.0,
        0.0,
        0.0,
        0.0,
        0.0,
        -1.0,
        0.0,
        -0.0,
        1.0,
        0.0,
        0.0,
        0.0,
        0.0,
        0.0,
        1.0
      ],
      "name": "AN_detail01_16"
    },
    {
      "mesh": 16,
      "name": "Object_36"
    },
    {
      "children": [
        38
      ],
      "matrix": [
        1.0,
        0.0,
        0.0,
        0.0,
        0.0,
        0.0,
        -1.0,
        0.0,
        -0.0,
        1.0,
        0.0,
        0.0,
        0.0,
        0.0,
        0.0,
        1.0
      ],
      "name": "AN_detail02_17"
    },
    {
      "mesh": 17,
      "name": "Object_38"
    },
    {
      "children": [
        40
      ],
      "matrix": [
        1.0,
        0.0,
        0.0,
        0.0,
        0.0,
        0.0,
        -1.0,
        0.0,
        -0.0,
        1.0,
        0.0,
        0.0,
        0.0,
        0.0,
        0.0,
        1.0
      ],
      "name": "AN_detail04_18"
    },
    {
      "mesh": 18,
      "name": "Object_40"
    },
    {
      "children": [
        42
      ],
      "matrix": [
        1.0,
        0.0,
        0.0,
        0.0,
        0.0,
        0.0,
        -1.0,
        0.0,
        -0.0,
        1.0,
        0.0,
        0.0,
        0.0,
        0.0,
        0.0,
        1.0
      ],
      "name": "AN_detail03_19"
    },
    {
      "mesh": 19,
      "name": "Object_42"
    },
    {
      "children": [
        44
      ],
      "matrix": [
        1.0,
        0.0,
        0.0,
        0.0,
        0.0,
        0.0,
        -1.0,
        0.0,
        -0.0,
        1.0,
        0.0,
        0.0,
        0.0,
        0.0,
        0.0,
        1.0
      ],
      "name": "AN_Walls_00_20"
    },
    {
      "mesh": 20,
      "name": "Object_44"
    },
    {
      "children": [
        46
      ],
      "matrix": [
        1.0,
        0.0,
        0.0,
        0.0,
        0.0,
        0.0,
        -1.0,
        0.0,
        -0.0,
        1.0,
        0.0,
        0.0,
        0.0,
        0.0,
        0.0,
        1.0
      ],
      "name": "AN_Stone_21"
    },
    {
      "mesh": 21,
      "name": "Object_46"
    },
    {
      "children": [
        48
      ],
      "matrix": [
        1.0,
        0.0,
        0.0,
        0.0,
        0.0,
        0.0,
        -1.0,
        0.0,
        -0.0,
        1.0,
        0.0,
        0.0,
        0.0,
        0.0,
        0.0,
        1.0
      ],
      "name": "AN_Roof_GOLD_22"
    },
    {
      "mesh": 22,
      "name": "Object_48"
    },
    {
      "children": [
        50
      ],
      "matrix": [
        1.0,
        0.0,
        0.0,
        0.0,
        0.0,
        0.0,
        -1.0,
        0.0,
        -0.0,
        1.0,
        0.0,
        0.0,
        0.0,
        0.0,
        0.0,
        1.0
      ],
      "name": "AN_Roof_23"
    },
    {
      "mesh": 23,
      "name": "Object_50"
    },
    {
      "children": [
        52
      ],
      "matrix": [
        1.0,
        0.0,
        0.0,
        0.0,
        0.0,
        0.0,
        -1.0,
        0.0,
        -0.0,
        1.0,
        0.0,
        0.0,
        0.0,
        0.0,
        0.0,
        1.0
      ],
      "name": "AN_door01_24"
    },
    {
      "mesh": 24,
      "name": "Object_52"
    },
    {
      "children": [
        54
      ],
      "matrix": [
        1.0,
        0.0,
        0.0,
        0.0,
        0.0,
        0.0,
        -1.0,
        0.0,
        -0.0,
        1.0,
        0.0,
        0.0,
        0.0,
        0.0,
        0.0,
        1.0
      ],
      "name": "AN_windows_mesh01_25"
    },
    {
      "mesh": 25,
      "name": "Object_54"
    },
    {
      "children": [
        56
      ],
      "matrix": [
        1.0,
        0.0,
        0.0,
        0.0,
        0.0,
        0.0,
        -1.0,
        0.0,
        -0.0,
        1.0,
        0.0,
        0.0,
        0.0,
        0.0,
        0.0,
        1.0
      ],
      "name": "AN_doors_26"
    },
    {
      "mesh": 26,
      "name": "Object_56"
    },
    {
      "children": [
        58
      ],
      "matrix": [
        1.0,
        0.0,
        0.0,
        0.0,
        0.0,
        0.0,
        -1.0,
        0.0,
        -0.0,
        1.0,
        0.0,
        0.0,
        0.0,
        0.0,
        0.0,
        1.0
      ],
      "name": "AN_windows mesh_27"
    },
    {
      "mesh": 27,
      "name": "Object_58"
    },
    {
      "children": [
        60
      ],
      "matrix": [
        1.0,
        0.0,
        0.0,
        0.0,
        0.0,
        0.0,
        -1.0,
        0.0,
        -0.0,
        1.0,
        0.0,
        0.0,
        0.0,
        0.0,
        0.0,
        1.0
      ],
      "name": "AN_detail06_28"
    },
    {
      "mesh": 28,
      "name": "Object_60"
    },
    {
      "children": [
        62
      ],
      "matrix": [
        1.0,
        0.0,
        0.0,
        0.0,
        0.0,
        0.0,
        -1.0,
        0.0,
        -0.0,
        1.0,
        0.0,
        0.0,
        0.0,
        0.20000243186950684,
        0.539440929889679,
        1.0
      ],
      "name": "AN_base_29"
    },
    {
      "mesh": 29,
      "name": "Object_62"
    },
    {
      "children": [
        64
      ],
      "matrix": [
        1.0,
        0.0,
        0.0,
        0.0,
        0.0,
        0.0,
        -1.0,
        0.0,
        -0.0,
        1.0,
        0.0,
        0.0,
        0.0,
        0.050004880875349045,
        0.539440929889679,
        1.0
      ],
      "name": "AN_base01_30"
    },
    {
      "mesh": 30,
      "name": "Object_64"
    }
  ],
  "samplers": [
    {
      "magFilter": 9729,
      "minFilter": 9729,
      "wrapS": 10497,
      "wrapT": 10497
    }
  ],
  "scene": 0,
  "scenes": [
    {
      "name": "Sketchfab_Scene",
      "nodes": [
        0
      ]
    }
  ],
  "textures": [
    {
      "sampler": 0,
      "source": 0
    },
    {
      "sampler": 0,
      "source": 1
    },
    {
      "sampler": 0,
      "source": 2
    },
    {
      "sampler": 0,
      "source": 3
    },
    {
      "sampler": 0,
      "source": 4
    },
    {
      "sampler": 0,
      "source": 5
    },
    {
      "sampler": 0,
      "source": 6
    },
    {
      "sampler": 0,
      "source": 7
    },
    {
      "sampler": 0,
      "source": 8
    },
    {
      "sampler": 0,
      "source": 9
    },
    {
      "sampler": 0,
      "source": 10
    },
    {
      "sampler": 0,
      "source": 11
    },
    {
      "sampler": 0,
      "source": 12
    },
    {
      "sampler": 0,
      "source": 13
    },
    {
      "sampler": 0,
      "source": 14
    },
    {
      "sampler": 0,
      "source": 15
    }
  ]
}
